<?xml version="1.0" encoding="UTF-8"?><svg id="Layer_2" xmlns="http://www.w3.org/2000/svg" xmlns:xlink="http://www.w3.org/1999/xlink" viewBox="0 0 1129.68 583.75"><defs><style>.cls-1{fill:#f7bbb1;}.cls-2{clip-path:url(#clippath);}.cls-3{fill:none;}.cls-4{fill:#f57966;}</style><clipPath id="clippath"><path class="cls-3" d="m-2-1.75v587.5h1051.6V-1.75H-2Zm379.28,133.96l-17.32-30,18.48-32,17.32,30-18.48,32Zm373.83,0l-17.32-30,18.48-32,17.32,30-18.48,32Z"/></clipPath></defs><g id="Layer_1-2"><g><polygon class="cls-4" points="710.72 .25 523.8 324 336.88 .25 0 583.75 34.64 583.75 336.88 60.25 506.48 354 391.15 553.76 425.79 553.76 523.8 384 621.81 553.76 656.45 553.76 541.12 354 710.72 60.25 1012.96 583.75 1047.6 583.75 710.72 .25"/><polygon class="cls-1" points="792.8 0 605.88 323.75 418.97 0 82.08 583.5 116.72 583.5 418.97 60 588.56 353.75 473.23 553.51 507.87 553.51 605.88 383.75 703.9 553.51 738.54 553.51 623.2 353.75 792.8 60 1095.04 583.5 1129.68 583.5 792.8 0"/><g class="cls-2"><polygon class="cls-4" points="710.72 .25 523.8 324 336.88 .25 0 583.75 34.64 583.75 336.88 60.25 506.48 354 391.15 553.76 425.79 553.76 523.8 384 621.81 553.76 656.45 553.76 541.12 354 710.72 60.25 1012.96 583.75 1047.6 583.75 710.72 .25"/></g></g></g></svg>